<?xml version="1.0" encoding="UTF-8"?>
<svg width="926px" height="771px" viewBox="0 0 926 771" version="1.1" xmlns="http://www.w3.org/2000/svg" xmlns:xlink="http://www.w3.org/1999/xlink">
    <!-- Generator: Sketch 51.2 (57519) - http://www.bohemiancoding.com/sketch -->
    <title>undraw_To_the_stars_qhyy</title>
    <desc>Created with Sketch.</desc>
    <defs>
        <linearGradient x1="50.0017673%" y1="100%" x2="50.0017673%" y2="0.00481706169%" id="linearGradient-1">
            <stop stop-color="#808080" stop-opacity="0.25" offset="0%"></stop>
            <stop stop-color="#808080" stop-opacity="0.12" offset="54%"></stop>
            <stop stop-color="#808080" stop-opacity="0.1" offset="100%"></stop>
        </linearGradient>
        <linearGradient x1="49.9783268%" y1="0%" x2="49.9783268%" y2="100.015969%" id="linearGradient-2">
            <stop stop-color="#E0E0E0" offset="0%"></stop>
            <stop stop-color="#FCCC63" offset="31%"></stop>
            <stop stop-color="#F55F44" offset="77%"></stop>
        </linearGradient>
        <linearGradient x1="50.0216732%" y1="0%" x2="50.0216732%" y2="100.015969%" id="linearGradient-3">
            <stop stop-color="#E0E0E0" offset="0%"></stop>
            <stop stop-color="#FCCC63" offset="31%"></stop>
            <stop stop-color="#F55F44" offset="77%"></stop>
        </linearGradient>
        <linearGradient x1="50.0017854%" y1="100.026706%" x2="50.0017854%" y2="0.0090971242%" id="linearGradient-4">
            <stop stop-color="#808080" stop-opacity="0.25" offset="0%"></stop>
            <stop stop-color="#808080" stop-opacity="0.12" offset="54%"></stop>
            <stop stop-color="#808080" stop-opacity="0.1" offset="100%"></stop>
        </linearGradient>
        <linearGradient x1="50%" y1="0%" x2="50%" y2="100%" id="linearGradient-5">
            <stop stop-color="#F2F2F2" offset="0%"></stop>
            <stop stop-color="#E6E6E6" offset="31%"></stop>
            <stop stop-color="#CCCCCC" offset="77%"></stop>
        </linearGradient>
        <linearGradient x1="50.0261588%" y1="0.0667535267%" x2="50.0261588%" y2="100%" id="linearGradient-6">
            <stop stop-color="#F2F2F2" offset="0%"></stop>
            <stop stop-color="#E6E6E6" offset="31%"></stop>
            <stop stop-color="#CCCCCC" offset="77%"></stop>
        </linearGradient>
        <linearGradient x1="50.0018333%" y1="-0.0532481363%" x2="50.0018333%" y2="100.01065%" id="linearGradient-7">
            <stop stop-color="#F2F2F2" offset="0%"></stop>
            <stop stop-color="#E6E6E6" offset="31%"></stop>
            <stop stop-color="#CCCCCC" offset="77%"></stop>
        </linearGradient>
        <linearGradient x1="49.996574%" y1="-0.0251984377%" x2="49.996574%" y2="100%" id="linearGradient-8">
            <stop stop-color="#F2F2F2" offset="0%"></stop>
            <stop stop-color="#E6E6E6" offset="31%"></stop>
            <stop stop-color="#CCCCCC" offset="77%"></stop>
        </linearGradient>
        <linearGradient x1="49.9893736%" y1="-0.0106450926%" x2="49.9893736%" y2="100.010645%" id="linearGradient-9">
            <stop stop-color="#F2F2F2" offset="0%"></stop>
            <stop stop-color="#E6E6E6" offset="31%"></stop>
            <stop stop-color="#CCCCCC" offset="77%"></stop>
        </linearGradient>
        <linearGradient x1="49.9919034%" y1="0.0388432241%" x2="49.9919034%" y2="100%" id="linearGradient-10">
            <stop stop-color="#F2F2F2" offset="0%"></stop>
            <stop stop-color="#E6E6E6" offset="31%"></stop>
            <stop stop-color="#CCCCCC" offset="77%"></stop>
        </linearGradient>
        <linearGradient x1="50%" y1="100%" x2="50%" y2="0%" id="linearGradient-11">
            <stop stop-color="#808080" stop-opacity="0.25" offset="0%"></stop>
            <stop stop-color="#808080" stop-opacity="0.12" offset="54%"></stop>
            <stop stop-color="#808080" stop-opacity="0.1" offset="100%"></stop>
        </linearGradient>
        <linearGradient x1="50%" y1="100%" x2="50%" y2="0.0343170899%" id="linearGradient-12">
            <stop stop-color="#808080" stop-opacity="0.25" offset="0%"></stop>
            <stop stop-color="#808080" stop-opacity="0.12" offset="54%"></stop>
            <stop stop-color="#808080" stop-opacity="0.1" offset="100%"></stop>
        </linearGradient>
        <linearGradient x1="50%" y1="4.10718344e-13%" x2="50%" y2="100%" id="linearGradient-13">
            <stop stop-color="#F2F2F2" offset="0%"></stop>
            <stop stop-color="#E0E0E0" offset="31%"></stop>
            <stop stop-color="#B3B3B3" offset="77%"></stop>
        </linearGradient>
        <linearGradient x1="50%" y1="0%" x2="50%" y2="100.032701%" id="linearGradient-14">
            <stop stop-color="#F2F2F2" offset="0%"></stop>
            <stop stop-color="#E6E6E6" offset="31%"></stop>
            <stop stop-color="#CCCCCC" offset="77%"></stop>
        </linearGradient>
        <linearGradient x1="49.9540293%" y1="99.9430785%" x2="49.9540293%" y2="-0.0566800544%" id="linearGradient-15">
            <stop stop-color="#808080" stop-opacity="0.25" offset="0%"></stop>
            <stop stop-color="#808080" stop-opacity="0.12" offset="54%"></stop>
            <stop stop-color="#808080" stop-opacity="0.1" offset="100%"></stop>
        </linearGradient>
        <linearGradient x1="50.0721261%" y1="100.095365%" x2="50.0721261%" y2="0.0957582806%" id="linearGradient-16">
            <stop stop-color="#808080" stop-opacity="0.25" offset="0%"></stop>
            <stop stop-color="#808080" stop-opacity="0.12" offset="54%"></stop>
            <stop stop-color="#808080" stop-opacity="0.1" offset="100%"></stop>
        </linearGradient>
    </defs>
    <g id="Landing" stroke="none" stroke-width="1" fill="none" fill-rule="evenodd">
        <g id="3_JEET-Copy-3" transform="translate(-177.000000, -401.000000)" fill-rule="nonzero">
            <g id="undraw_To_the_stars_qhyy" transform="translate(177.000000, 401.000000)">
                <g id="Group" opacity="0.7" transform="translate(301.000000, 48.000000)" fill="url(#linearGradient-1)">
                    <path d="M283.59,298.63 C283.670503,274.264884 277.836902,250.244175 266.59,228.63 C261.25,218.48 256.38,212.17 252.59,208.3 C249.660304,205.192658 245.080599,204.288769 241.19,206.05 C239.673186,206.585224 238.30313,207.46891 237.19,208.63 C232.12,213.88 227.54,220.82 223.54,228.21 C211.707666,250.329055 205.566426,275.045224 205.67,300.13 L205.67,315.19 L196.01,315.19 L196.01,140.19 C196.01,103.51 187.8,67.32 171.72,35.19 C164.1,19.98 157.15,10.53 151.8,4.72 C149.177909,1.73200271 145.395361,0.0188802824 141.42,0.0188802824 C137.444639,0.0188802824 133.662091,1.73200271 131.04,4.72 C123.8,12.59 117.27,22.99 111.56,34.05 C94.65,66.84 86.06,104.05 86.06,141.82 L86.06,315.19 L77.71,315.19 L77.71,299.41 C77.8135737,274.325224 71.6723343,249.609055 59.84,227.49 C55.84,220.11 51.26,213.17 46.19,207.91 C43.1956659,204.756163 38.5062958,203.899141 34.59,205.79 L34.94,205.98 C33.7156216,206.521156 32.6083459,207.29557 31.68,208.26 C27.93,212.13 23.06,218.44 17.68,228.59 C6.43309763,250.204175 0.599496889,274.224884 0.68,298.59 L0.68,560.23 L30.48,560.23 L27.23,581.74 L27.23,646.05 L51.59,646.05 L51.59,581.74 L48.34,560.23 L77.71,560.23 L77.71,321.96 L86.06,321.96 L86.06,559.16 L109.86,559.16 L106.44,581.73 L106.44,646.05 L130.81,646.05 L130.81,581.74 L127.39,559.17 L159.46,559.17 L156.04,581.74 L156.04,646.05 L180.41,646.05 L180.41,581.74 L176.99,559.17 L195.99,559.17 L195.99,321.96 L205.65,321.96 L205.65,560.59 L213.48,560.59 L213.48,560.23 L239.37,560.23 L236.12,581.74 L236.12,646.05 L260.49,646.05 L260.49,581.74 L257.24,560.23 L283.59,560.23 L283.59,298.63 Z" id="Shape"></path>
                </g>
                <polygon id="Shape" fill="#535461" points="357.44 617.2 334.37 617.2 338.49 589.19 353.32 589.19"></polygon>
                <g id="Group" opacity="0.1" transform="translate(337.000000, 592.000000)" fill="#000000">
                    <polygon id="Shape" points="0.34 8.31 17.47 8.31 16.32 0.48 1.49 0.48"></polygon>
                </g>
                <polygon id="Shape" fill="#535461" points="555.2 617.2 532.13 617.2 536.25 589.19 551.08 589.19"></polygon>
                <g id="Group" opacity="0.1" transform="translate(535.000000, 592.000000)" fill="#000000">
                    <polygon id="Shape" points="0.1 8.31 17.23 8.31 16.08 0.48 1.25 0.48"></polygon>
                </g>
                <polygon id="Shape" fill="#535461" points="432.43 617.2 409.35 617.2 413.47 589.19 428.31 589.19"></polygon>
                <g id="Group" opacity="0.1" transform="translate(412.000000, 592.000000)" fill="#000000">
                    <polygon id="Shape" points="0.32 8.31 17.46 8.31 16.31 0.48 1.47 0.48"></polygon>
                </g>
                <polygon id="Shape" fill="#535461" points="479.39 617.2 456.32 617.2 460.44 589.19 475.27 589.19"></polygon>
                <g id="Group" opacity="0.1" transform="translate(459.000000, 592.000000)" fill="#000000">
                    <polygon id="Shape" points="0.29 8.31 17.43 8.31 16.27 0.48 1.44 0.48"></polygon>
                </g>
                <rect id="Rectangle-path" fill="#535461" x="357.44" y="357.64" width="164.8" height="6.59"></rect>
                <path d="M547.72,253.51 C545.958929,251.565978 543.458089,250.457057 540.835,250.457057 C538.211911,250.457057 535.711071,251.565978 533.95,253.51 C529.15,258.62 524.82,265.38 521.03,272.57 C509.814697,294.19222 504.012103,318.212419 504.12,342.57 L504.12,596.26 L577.05,596.26 L577.05,341.52 C577.141658,317.830185 571.620971,294.45551 560.94,273.31 C555.88,263.43 551.27,257.28 547.72,253.51 Z" id="Shape" fill="#E0E0E0"></path>
                <path d="M338.59,253.51 C340.351071,251.565978 342.851911,250.457057 345.475,250.457057 C348.098089,250.457057 350.598929,251.565978 352.36,253.51 C357.16,258.62 361.49,265.38 365.28,272.57 C376.495303,294.19222 382.297897,318.212419 382.19,342.57 L382.19,596.26 L309.24,596.26 L309.24,341.52 C309.148342,317.830185 314.669029,294.45551 325.35,273.31 C330.4,263.43 335.01,257.28 338.59,253.51 Z" id="Shape" fill="#E0E0E0"></path>
                <polygon id="Shape" fill="#535461" points="309.65 346.93 326.95 347.01 326.95 368.35 309.65 368.35"></polygon>
                <polygon id="Shape" fill="#535461" points="364.86 346.93 382.16 347.01 382.16 368.35 364.86 368.35"></polygon>
                <polygon id="Shape" fill="#535461" points="504.11 346.93 521.42 347.01 521.42 368.35 504.11 368.35"></polygon>
                <polygon id="Shape" fill="#535461" points="559.32 346.93 576.63 347.01 576.63 368.35 559.32 368.35"></polygon>
                <g id="Group" opacity="0.1" transform="translate(341.000000, 250.000000)" fill="#000000">
                    <path d="M24.25,22.24 C20.47,15.05 16.13,8.29 11.33,3.18 C8.54243593,0.101271185 4.04597958,-0.744880146 0.33,1.11 C1.371958,1.62989443 2.31325378,2.33078733 3.11,3.18 C7.91,8.29 12.24,15.05 16.03,22.24 C27.2453031,43.8622199 33.0478968,67.8824185 32.94,92.24 L32.94,345.91 L41.18,345.91 L41.18,92.27 C41.2865778,67.9006179 35.4769602,43.8694592 24.25,22.24 Z" id="Shape"></path>
                </g>
                <g id="Group" opacity="0.1" transform="translate(503.000000, 250.000000)" fill="#000000">
                    <path d="M24.59,22.94 C28.37,15.75 32.71,8.99 37.51,3.88 C38.4088835,2.91286534 39.4939315,2.13734517 40.7,1.6 C37.0442541,-0.00101315842 32.7741518,0.917461671 30.1,3.88 C25.3,8.99 20.97,15.75 17.18,22.94 C5.96469693,44.5622199 0.162103235,68.5824185 0.27,92.94 L0.27,346.61 L7.69,346.61 L7.69,92.98 C7.57253711,68.6097352 13.3718727,44.5750924 24.59,22.94 Z" id="Shape"></path>
                </g>
                <rect id="Rectangle-path" fill="url(#linearGradient-2)" x="334.37" y="617.2" width="23.07" height="62.62"></rect>
                <rect id="Rectangle-path" fill="url(#linearGradient-3)" x="409.35" y="617.2" width="23.07" height="62.62"></rect>
                <rect id="Rectangle-path" fill="url(#linearGradient-3)" x="456.32" y="617.2" width="23.07" height="62.62"></rect>
                <rect id="Rectangle-path" fill="url(#linearGradient-3)" x="532.13" y="617.2" width="23.07" height="62.62"></rect>
                <path d="M452.29,54.61 C449.850336,51.7103798 446.254427,50.0364971 442.465,50.0364971 C438.675573,50.0364971 435.079664,51.7103798 432.64,54.61 C425.79,62.27 419.64,72.4 414.2,83.18 C398.2,115.12 390.06,151.37 390.06,188.13 L390.06,595.22 L494.15,595.22 L494.15,186.49 C494.15,150.77 486.38,115.49 471.15,84.28 C463.94,69.47 457.36,60.27 452.29,54.61 Z" id="Shape" fill="#EEEEEE"></path>
                <rect id="Rectangle-path" fill="#EC4C6F" x="414.23" y="99.83" width="54.31" height="24.89" rx="11"></rect>
                <g id="Group" opacity="0.7" transform="translate(136.000000, 582.000000)" fill="url(#linearGradient-4)">
                    <path d="M548.59,90.98 C541.506547,48.2713678 502.786707,18.1800936 459.651417,21.8610345 C416.516127,25.5419753 383.454666,61.7586917 383.71,105.05 C383.71,105.46 383.71,105.86 383.71,106.27 C380.639952,106.734984 377.601013,107.386186 374.61,108.22 C366.758739,76.9524875 339.99838,54.0656521 307.891518,51.1589229 C275.784656,48.2521937 245.349062,65.9609102 232.01,95.31 C225.301839,92.7221346 218.256406,91.1123274 211.09,90.53 C209.947345,84.0409281 208.030314,77.7123753 205.38,71.68 C202.80033,32.2060844 170.299089,1.35320525 130.744435,0.829718556 C91.1897804,0.306231867 57.8834198,30.2881793 54.26,69.68 C50.3335144,77.9947453 47.8255729,86.9077397 46.84,96.05 C10.8810479,111.011057 -7.91214137,150.766711 3.35,188.05 L610.93,188.05 C617.339442,166.804782 614.12501,143.818368 602.133521,125.146346 C590.142031,106.474323 570.576021,93.9891701 548.59,90.98 Z" id="Shape"></path>
                </g>
                <circle id="Oval" fill="url(#linearGradient-5)" cx="272.71" cy="659.35" r="72.83"></circle>
                <circle id="Oval" fill="url(#linearGradient-5)" cx="272.35" cy="686.66" r="79.75"></circle>
                <circle id="Oval" fill="url(#linearGradient-5)" cx="596.45" cy="686.66" r="79.75"></circle>
                <circle id="Oval" fill="url(#linearGradient-5)" cx="592.44" cy="693.58" r="72.83"></circle>
                <path d="M510.14,707.42 C510.163882,730.784027 498.957305,752.73582 480.02,766.42 L394.59,766.42 C366.685268,746.251354 356.707674,709.302267 370.667152,677.828765 C384.626631,646.355263 418.712256,628.949587 452.392788,636.095924 C486.07332,643.242261 510.154001,672.989667 510.13,707.42 L510.14,707.42 Z" id="Shape" fill="url(#linearGradient-6)"></path>
                <path d="M417.65,745.29 C417.657919,752.445391 416.606522,759.562538 414.53,766.41 L275.1,766.41 C268.453755,744.420645 272.571571,720.584484 286.209977,702.099404 C299.848383,683.614324 321.408595,672.64727 344.38,672.51 L344.83,672.51 C346.87,672.51 348.893333,672.593333 350.9,672.76 C357.781965,673.319736 364.547781,674.865535 370.99,677.35 C399.090508,688.176094 417.633689,715.176172 417.65,745.29 Z" id="Shape" fill="url(#linearGradient-7)"></path>
                <path d="M600.46,759.86 C600.46,762.04 600.363333,764.196667 600.17,766.33 C600.177621,766.359516 600.177621,766.390484 600.17,766.42 L455.09,766.42 C454.89,764.26 454.79,762.07 454.79,759.87 C454.764251,723.852264 481.09422,693.236021 516.71,687.87 C520.311453,687.328475 523.948064,687.054392 527.59,687.05 C529.45,687.05 531.3,687.12 533.13,687.25 C559.720009,689.283502 583.076916,705.675525 594.03,729.99 C594.33,730.65 594.62,731.32 594.89,731.99 C598.567737,740.821375 600.460792,750.293447 600.46,759.86 Z" id="Shape" fill="url(#linearGradient-8)"></path>
                <path d="M738.11,745.29 C738.117919,752.445391 737.066522,759.562538 734.99,766.41 L595.59,766.41 C595.59,766.41 595.59,766.41 595.59,766.41 C592.219711,755.210786 591.578521,743.367622 593.72,731.87 C593.84,731.24 593.96,730.6 594.1,729.98 C601.33097,696.427972 630.997624,672.472211 665.32,672.47 C667.61,672.47 669.86,672.57 672.09,672.79 C673.09,672.87 674.09,672.99 675.09,673.12 C711.188951,678.031557 738.10749,708.858452 738.11,745.29 Z" id="Shape" fill="url(#linearGradient-9)"></path>
                <path d="M290.72,766.42 C290.96,765.66 291.17,764.9 291.38,764.13 C298.128552,738.889739 290.849844,711.968076 272.302166,693.567061 C253.754489,675.166046 226.775891,668.101288 201.59,675.05 C198.692737,675.844928 195.8501,676.826991 193.08,677.99 C158.527669,692.364796 140.47217,730.567431 151.3,766.39 L290.72,766.39 L290.72,766.42 Z" id="Shape" fill="url(#linearGradient-10)"></path>
                <g id="Group" opacity="0.7" transform="translate(697.000000, 589.000000)" fill="url(#linearGradient-11)">
                    <circle id="Oval" cx="13.43" cy="14.27" r="13.36"></circle>
                </g>
                <circle id="Oval" fill="url(#linearGradient-5)" cx="710.43" cy="603.27" r="12.38"></circle>
                <g id="Group" opacity="0.7" transform="translate(757.000000, 717.000000)" fill="url(#linearGradient-12)">
                    <circle id="Oval" cx="14.61" cy="15.18" r="14.57"></circle>
                </g>
                <circle id="Oval" fill="url(#linearGradient-13)" cx="771.61" cy="732.18" r="13.84"></circle>
                <g id="Group" opacity="0.7" transform="translate(132.000000, 633.000000)" fill="url(#linearGradient-11)">
                    <circle id="Oval" cx="16.17" cy="16.15" r="16.01"></circle>
                </g>
                <circle id="Oval" fill="url(#linearGradient-14)" cx="148.17" cy="649.15" r="15.29"></circle>
                <g id="Group" opacity="0.4" transform="translate(672.000000, 0.000000)" fill="url(#linearGradient-15)">
                    <path d="M79.32,17.47 C75.7712603,12.7806164 71.3249392,8.84419447 66.24,5.89 C50.2529521,-3.29708074 30.2296877,-1.52022992 16.1102291,10.3384817 C1.99077044,22.1971932 -3.21821855,41.6125158 3.06912752,58.9462238 C9.35647359,76.2799317 25.8012977,87.8409039 44.24,87.89 C45.17,87.89 46.1,87.89 47.02,87.8 C63.1476202,86.7826519 77.4131294,76.9892487 84.1579317,62.3044683 C90.902734,47.619688 89.036694,30.4169734 79.3,17.52 L79.32,17.47 Z" id="Shape"></path>
                </g>
                <path d="M757.77,43.92 C757.771794,65.8255021 740.751491,83.9621063 718.89,85.35 C718.02,85.41 717.14,85.44 716.26,85.44 C698.815028,85.4296734 683.237944,74.5131336 677.274906,58.1189475 C671.311867,41.7247615 676.235424,23.3515477 689.597193,12.1359211 C702.958963,0.920294458 721.907462,-0.744262318 737.02,7.97 C741.829162,10.7629042 746.034216,14.4852435 749.39,18.92 C754.839875,26.1138646 757.783274,34.8948879 757.77,43.92 Z" id="Shape" fill="#EC4C6F" opacity="0.2"></path>
                <path d="M706.04,17.59 C703.895526,18.5150791 701.825992,19.6050111 699.85,20.85 C698.530421,21.5818396 697.397661,22.6085107 696.54,23.85 C695.684409,25.1217682 695.653109,26.7767901 696.46,28.08 C697.46,29.46 699.46,29.68 701.13,29.77 C704.254741,30.4336264 707.494786,29.3638003 709.61,26.97 L713.18,23.73 C714.42,22.61 715.78,21.06 715.24,19.48 C714.83,18.27 713.47,17.68 712.24,17.48 C709.171652,16.8761176 705.988378,17.4357749 703.31,19.05" id="Shape" fill="#F55F44" opacity="0.05"></path>
                <circle id="Oval" fill="#F55F44" opacity="0.05" cx="691.13" cy="60.31" r="2.18"></circle>
                <circle id="Oval" fill="#F55F44" opacity="0.05" cx="735.56" cy="46.47" r="8.01"></circle>
                <path d="M749.4,18.91 C749.311788,24.7371561 744.667161,29.4701902 738.842704,29.6682464 C733.018246,29.8663027 728.062833,25.4597105 727.578987,19.6520068 C727.095141,13.8443031 731.253064,8.67846875 737.03,7.91 C741.843808,10.7175746 746.049197,14.457209 749.4,18.91 Z" id="Shape" fill="#F55F44" opacity="0.05"></path>
                <path d="M750.2,67.83 C742.966456,78.1228111 731.446132,84.5691883 718.89,85.35 C718.84,84.78 718.81,84.2 718.81,83.62 C718.812707,76.1892668 723.002594,69.3942949 729.640788,66.0551074 C736.278983,62.7159199 744.232306,63.4025364 750.2,67.83 Z" id="Shape" fill="#F55F44" opacity="0.05"></path>
                <circle id="Oval" fill="#535461" opacity="0.25" cx="722.81" cy="344.72" r="5.1"></circle>
                <circle id="Oval" fill="#535461" opacity="0.25" cx="42.81" cy="478.72" r="5.1"></circle>
                <circle id="Oval" fill="#535461" opacity="0.25" cx="919.81" cy="507.72" r="5.1"></circle>
                <circle id="Oval" fill="#535461" opacity="0.25" cx="288.73" cy="266.06" r="5.1"></circle>
                <circle id="Oval" fill="#535461" opacity="0.25" cx="271.98" cy="148.8" r="5.1"></circle>
                <circle id="Oval" fill="#535461" opacity="0.25" cx="127.77" cy="381.13" r="5.1"></circle>
                <polygon id="Shape" fill="#535461" opacity="0.25" points="849.18 387.12 844.64 387.12 844.64 382.59 842.79 382.59 842.79 387.12 838.25 387.12 838.25 388.98 842.79 388.98 842.79 393.51 844.64 393.51 844.64 388.98 849.18 388.98"></polygon>
                <polygon id="Shape" fill="#535461" opacity="0.25" points="925.18 230.12 920.64 230.12 920.64 225.59 918.79 225.59 918.79 230.12 914.25 230.12 914.25 231.98 918.79 231.98 918.79 236.51 920.64 236.51 920.64 231.98 925.18 231.98"></polygon>
                <polygon id="Shape" fill="#535461" opacity="0.25" points="601.55 142.41 597.01 142.41 597.01 137.87 595.16 137.87 595.16 142.41 590.62 142.41 590.62 144.26 595.16 144.26 595.16 148.8 597.01 148.8 597.01 144.26 601.55 144.26"></polygon>
                <polygon id="Shape" fill="#535461" opacity="0.25" points="799.65 361.63 795.11 361.63 795.11 357.1 793.26 357.1 793.26 361.63 788.73 361.63 788.73 363.49 793.26 363.49 793.26 368.02 795.11 368.02 795.11 363.49 799.65 363.49"></polygon>
                <polygon id="Shape" fill="#535461" opacity="0.25" points="633.59 512.39 629.06 512.39 629.06 507.86 627.21 507.86 627.21 512.39 622.67 512.39 622.67 514.25 627.21 514.25 627.21 518.78 629.06 518.78 629.06 514.25 633.59 514.25"></polygon>
                <polygon id="Shape" fill="#535461" opacity="0.25" points="168.93 201.4 164.39 201.4 164.39 196.87 162.54 196.87 162.54 201.4 158 201.4 158 203.25 162.54 203.25 162.54 207.79 164.39 207.79 164.39 203.25 168.93 203.25"></polygon>
                <polygon id="Shape" fill="#535461" opacity="0.25" points="10.93 260.4 6.39 260.4 6.39 255.87 4.54 255.87 4.54 260.4 0 260.4 0 262.25 4.54 262.25 4.54 266.79 6.39 266.79 6.39 262.25 10.93 262.25"></polygon>
                <polygon id="Shape" fill="#535461" opacity="0.25" points="231.56 446.12 227.02 446.12 227.02 441.58 225.17 441.58 225.17 446.12 220.64 446.12 220.64 447.97 225.17 447.97 225.17 452.51 227.02 452.51 227.02 447.97 231.56 447.97"></polygon>
                <circle id="Oval" fill="url(#linearGradient-5)" cx="771.61" cy="732.18" r="13.84"></circle>
                <g id="Group" opacity="0.4" transform="translate(231.000000, 339.000000)" fill="url(#linearGradient-16)">
                    <path d="M37.96,9.32 C36.2702647,7.08476375 34.1524362,5.20829291 31.73,3.8 C24.1145664,-0.632802359 14.5379435,0.181499687 7.78027332,5.83644977 C1.02260316,11.4913998 -1.46717009,20.7744932 1.55371625,29.0521023 C4.5746026,37.3297114 12.4584259,42.8269946 21.27,42.8 C21.71,42.8 22.16,42.8 22.59,42.8 C30.2671898,42.3089271 37.0554636,37.6439513 40.2658437,30.6529674 C43.4762239,23.6619835 42.5906821,15.4730595 37.96,9.33 L37.96,9.32 Z" id="Shape"></path>
                </g>
                <path d="M272.03,360.92 C272.029766,371.353157 263.922282,379.990342 253.51,380.65 C253.1,380.65 252.68,380.65 252.26,380.65 C243.953303,380.64157 236.537816,375.44146 233.699749,367.634626 C230.861683,359.827791 233.206418,351.079488 239.568395,345.738465 C245.930373,340.397442 254.952535,339.602978 262.15,343.75 C264.438763,345.07978 266.440787,346.85067 268.04,348.96 C270.646262,352.40088 272.048316,356.603529 272.03,360.92 Z" id="Shape" fill="#EC4C6F" opacity="0.2"></path>
                <path d="M247.39,348.38 C246.350945,348.817292 245.347858,349.335553 244.39,349.93 C243.762312,350.272812 243.221749,350.755214 242.81,351.34 C242.421082,351.949945 242.421082,352.730055 242.81,353.34 C243.398222,353.917181 244.208817,354.209287 245.03,354.14 C246.505127,354.442031 248.029428,353.935201 249.03,352.81 L250.73,351.27 C251.32,350.73 251.97,350 251.73,349.27 C251.457262,348.708331 250.911557,348.329369 250.29,348.27 C248.829346,347.984224 247.314611,348.25153 246.04,349.02" id="Shape" fill="#F55F44" opacity="0.1"></path>
                <circle id="Oval" fill="#F55F44" opacity="0.1" cx="240.29" cy="368.72" r="1.04"></circle>
                <circle id="Oval" fill="#F55F44" opacity="0.1" cx="261.45" cy="362.13" r="3.82"></circle>
                <path d="M268.04,349.05 C268.004776,351.823409 265.799017,354.080994 263.027174,354.180607 C260.255331,354.28022 257.893207,352.186793 257.658992,349.423068 C257.424777,346.659342 259.400924,344.198263 262.15,343.83 C264.439689,345.162716 266.441779,346.937064 268.04,349.05 Z" id="Shape" fill="#F55F44" opacity="0.1"></path>
                <path d="M268.43,372.31 C264.986747,377.214063 259.500496,380.286511 253.519952,380.66 C253.52,380.39 253.52,380.11 253.52,379.83 C253.508597,376.273699 255.511457,373.017471 258.690628,371.423646 C261.869799,369.829822 265.677238,370.173154 268.52,372.31 L268.43,372.31 Z" id="Shape" fill="#F55F44" opacity="0.1"></path>
                <g id="Group" opacity="0.1" transform="translate(390.000000, 202.000000)" fill="#000000">
                    <rect id="Rectangle-path" x="0.59" y="0.05" width="103" height="4"></rect>
                </g>
            </g>
        </g>
    </g>
</svg>