<svg xmlns="http://www.w3.org/2000/svg" viewBox="0 0 434.1 119.14"><defs><style>.a{fill:#fff;}</style></defs><title>BVC_logo_white</title><path class="a" d="M8.48,12.44c10.31,0,20.62,0,30.92.15a40.38,40.38,0,0,1,8.73,1.26c6.66,1.61,10.48,6,11.75,12.7,1.14,6,1.12,11.92-1,17.69A11.81,11.81,0,0,1,50.47,52,175.46,175.46,0,0,0,9.8,68.54a10.88,10.88,0,0,1-1.32.54ZM29.15,25V48.12c1.39,0,2.65,0,3.91,0,4.43-.12,6.19-1.57,6.72-6.06a55.59,55.59,0,0,0,.36-9.52C39.78,26.11,35.69,23.35,29.15,25Z" transform="translate(-8.48 -12.34)"/><path class="a" d="M8.48,76.28A104.62,104.62,0,0,1,29,65c0,7.07.11,13.78-.06,20.48-.06,2.42.77,3,3,2.87,4.73-.29,7.44-2.23,7.82-7a122.39,122.39,0,0,0-.12-15.51c-.07-1.39-1.11-2.74-1.87-4.5,5.09-1.51,10.31-3.12,15.58-4.54a3.37,3.37,0,0,1,2.5.94c2.46,2.16,3.48,5.09,4,8.24a54.75,54.75,0,0,1-.5,21.42c-1.79,7.57-6,11.44-13.75,12.25-6.42.66-12.91.76-19.37.95-5.91.17-11.82.13-17.73.18Z" transform="translate(-8.48 -12.34)"/><path class="a" d="M91.52,131.48c-.9-.28-1.82-.53-2.71-.84a10.53,10.53,0,1,1,6.19.3,15,15,0,0,0-1.56.55Zm6.17-10.66c-.05-3.24-2.34-5.69-5.29-5.67s-5.2,2.53-5.19,5.76,2.27,5.65,5.28,5.62A5.31,5.31,0,0,0,97.69,120.82Z" transform="translate(-8.48 -12.34)"/><path class="a" d="M350.72,131.48c-1.06-.31-2.15-.57-3.18-1-4.54-1.69-6.72-6.1-5.87-11.78a9.88,9.88,0,0,1,9.23-8.26c4.68-.32,7.92,1.51,9.67,5.56-2,.8-3.73,2.51-6,0-1.56-1.66-4.67-1.06-6.32.59s-2.05,5.63-.55,7.79a5.19,5.19,0,0,0,6,1.69,4.55,4.55,0,0,0,1.66-1.31c2-2.53,2-2.55,5.28-2.21v8.53c-2.92-2.87-5.35-.52-8,.31Z" transform="translate(-8.48 -12.34)"/><path class="a" d="M22.88,131.48c-.67-.21-1.34-.44-2-.62a10.46,10.46,0,0,1,.71-20.15,9.83,9.83,0,0,1,11.05,4.67,5.79,5.79,0,0,1,.27.91,18.41,18.41,0,0,1-3,1.18,2.49,2.49,0,0,1-1.94-.47c-2.45-2.29-5.33-2.49-7.43-.38a6.47,6.47,0,0,0-.17,8.33c2,2.19,5,1.86,7.69-.13,1-.77,3.07-.22,4.73-.28a7.85,7.85,0,0,1-5.91,6.32c-.69.18-1.36.4-2,.6Z" transform="translate(-8.48 -12.34)"/><path class="a" d="M82.77,51.17c0,1.35,0,2.21,0,3.07,0,9.83,0,19.67,0,29.5a13.32,13.32,0,0,0,.42,3.54,4.09,4.09,0,0,0,4.67,3.21,4.24,4.24,0,0,0,4.17-3.88,23.17,23.17,0,0,0,.15-3.35q0-14.87,0-29.74c0-.94,0-1.88,0-3.28h16.94c0,.83,0,1.77,0,2.7,0,9.28,0,18.55,0,27.82a34.28,34.28,0,0,1-.66,6.42c-1.61,8-6.64,12.68-14.59,14.23a31.81,31.81,0,0,1-14.72-.49c-7.65-2.11-12.64-8.12-12.92-16.26C65.92,75,66,65.32,66,55.65c0-.63.52-1.73,1-1.81C72.12,52.88,77.29,52.07,82.77,51.17Z" transform="translate(-8.48 -12.34)"/><path class="a" d="M394.68,89.77v10.64H359.61V49.85l16.18,1.08a5.11,5.11,0,0,1,.35,1.44c-.14,1.81.85,2.07,2.36,2,4.47-.07,9,0,13.43-.05,1.54,0,2.19.49,2.14,2.05-.07,2.16-.09,4.32,0,6.47.09,1.75-.51,2.4-2.33,2.35-4.31-.11-8.63,0-12.95-.07-1.92,0-2.7.49-2.67,2.54q.16,9.83,0,19.66c0,1.92.67,2.47,2.52,2.43C383.92,89.71,389.18,89.77,394.68,89.77Z" transform="translate(-8.48 -12.34)"/><path class="a" d="M246.16,27.13h23.36l5.13,39.75L258.94,70l-2.85-30.91-.55-.06c-.29,2.68-.62,5.36-.87,8-.68,7.39-1.3,14.79-2,22.18-.05.54-.66,1.43-1.08,1.48-4.26.42-8.54.7-13,1Z" transform="translate(-8.48 -12.34)"/><path class="a" d="M115.32,49.72c5,.93,9.76,1.75,14.48,2.8.62.14,1.34,1.43,1.4,2.23.59,7.56,1.05,15.13,1.57,22.7a1.5,1.5,0,0,0,.84,1.25l3.14-24.28c3,1.22,5.76,2.18,8.33,3.49.52.27.59,1.86.5,2.8-.57,6-1.24,11.9-1.89,17.85q-1.14,10.35-2.32,20.69c0,.38-.12.76-.22,1.34-6.06,0-12,.06-18-.09-.57,0-1.48-1.27-1.6-2-.77-5-1.36-10-2-14.94Q117.37,67.28,115.23,51A10.26,10.26,0,0,1,115.32,49.72Z" transform="translate(-8.48 -12.34)"/><path class="a" d="M211.83,71c-3.54-.43-6.84-.8-10.13-1.24-1.5-.2-3-.65-4.48-.75-2.06-.13-2.94-1-3.25-3.13-2.6-17.51-5.32-35-8-52.51a7.42,7.42,0,0,1,0-.91h21.58Z" transform="translate(-8.48 -12.34)"/><path class="a" d="M241,12.35l-9.87,59.14H214.35c.45-3.75.8-7.06,1.23-10.36q2.56-19.57,5.16-39.14c.34-2.61.59-5.24,1.06-7.82.12-.67.91-1.72,1.42-1.73C229,12.3,234.7,12.35,241,12.35Z" transform="translate(-8.48 -12.34)"/><path class="a" d="M337.84,50.76c0,4.06,0,7.25,0,10.44,0,8.64.06,17.28,0,25.92,0,2.11.64,2.76,2.75,2.71,5.18-.14,10.37,0,15.74,0v10.71H321.2c-.05-.84-.14-1.6-.14-2.37,0-13.36,0-26.72,0-40.08,0-1.73.51-2.6,2.16-3.05C327.92,53.68,332.62,52.27,337.84,50.76Z" transform="translate(-8.48 -12.34)"/><path class="a" d="M163.7,78.94,165,67.72c4.16,2,8.05,3.83,11.89,5.78a2,2,0,0,1,.79,1.69c-1.06,8.38-2.2,16.75-3.34,25.26H154.57l-4.74-40.6c4.15,2.13,7.88,4,11.54,6,.39.21.56,1.07.62,1.65.4,3.8.75,7.61,1.11,11.41Z" transform="translate(-8.48 -12.34)"/><path class="a" d="M411.21,100.43c0-6.47-.21-12.71.06-18.93a40.91,40.91,0,0,0-2.52-15.7c-1.06-3-1.91-6.06-2.86-9.09l.41-.71,24.49,8-.18.57c0,.07.09.17.06.22-3.5,7.72-2.71,15.92-2.74,24,0,3.83,0,7.65,0,11.65Z" transform="translate(-8.48 -12.34)"/><path class="a" d="M282.69,100.6c0-8.64,0-16.94,0-25.24a2,2,0,0,1,.89-1.46c5.12-2.56,10.29-5,15.75-7.7.06.93.15,1.68.15,2.42,0,6.24.05,12.47,0,18.71,0,1.81.49,2.54,2.44,2.48,4.71-.13,9.44,0,14.15-.07,1.58,0,2.12.54,2.07,2.08-.09,2.4.07,4.8-.1,7.19a2.17,2.17,0,0,1-1.46,1.52C305.41,100.63,294.23,100.6,282.69,100.6Z" transform="translate(-8.48 -12.34)"/><path class="a" d="M108.63,43.48l-16.11.91C91.14,38,90.36,37,87.15,37.17s-4,1.74-4.5,8.18L66.31,48C65,35.77,71.26,27.69,82,26A30.7,30.7,0,0,1,98,27.4,16.63,16.63,0,0,1,108.63,43.48Z" transform="translate(-8.48 -12.34)"/><path class="a" d="M282.82,27c5.26,0,10.36,0,15.45.07.46,0,1.28,1,1.28,1.46q.12,13.9,0,27.79a2.17,2.17,0,0,1-1.07,1.61c-5.1,2.22-10.24,4.34-15.68,6.62Z" transform="translate(-8.48 -12.34)"/><path class="a" d="M140.14,27.12h18.35l2.67,30c-4.18-1.91-8-3.61-11.77-5.43-.4-.19-.58-1-.67-1.6a23.37,23.37,0,0,0-1.32-5.58l-.83,6-9-3.14Z" transform="translate(-8.48 -12.34)"/><path class="a" d="M228.69,85.65l-2.49,15H220.7c-6.23,0-12.46-.07-18.69,0-1.94,0-2.75-.39-3-2.54-.69-5.74-1.73-11.45-2.57-16.81Z" transform="translate(-8.48 -12.34)"/><path class="a" d="M184,27l-4.86,37.41c-2.33-.82-4.48-1.5-6.58-2.33s-5-1.31-6.1-2.92c-1-1.46-.14-4.26.07-6.45q1.16-12.14,2.47-24.26c.06-.52.74-1.38,1.14-1.39C174.62,27,179.14,27,184,27Z" transform="translate(-8.48 -12.34)"/><path class="a" d="M394.66,27.14V37.85H385.1c-2.24,0-4.48.08-6.71,0-1.71-.08-2.28.62-2.19,2.24s0,3.14,0,4.94l-16.64-1.25V27.14Z" transform="translate(-8.48 -12.34)"/><path class="a" d="M442.58,27,432.5,59.19c-4-1.43-7.78-2.76-11.55-4.22-.33-.13-.57-1.11-.47-1.61q2.61-12.53,5.37-25a2,2,0,0,1,1.38-1.26C432.18,27,437.13,27,442.58,27Z" transform="translate(-8.48 -12.34)"/><path class="a" d="M397,27.11h16l5.88,27.08c-1.21-.32-2.15-.55-3.08-.81-3.53-1-7.07-1.93-10.56-3a2.94,2.94,0,0,1-1.76-1.52C401.21,42,399.08,35,396.93,28.12A4.07,4.07,0,0,1,397,27.11Z" transform="translate(-8.48 -12.34)"/><path class="a" d="M258.68,82.34,276,77.29l3,23.31c-5.33,0-10.43,0-15.52-.08-.49,0-1.28-1.07-1.36-1.71-.6-4.75-1.06-9.52-1.54-14.29C260.44,83.22,260.37,81.95,258.68,82.34Z" transform="translate(-8.48 -12.34)"/><path class="a" d="M321.19,27c5.21,0,10.24,0,15.26.06a2,2,0,0,1,1.35,1.41c.1,4.88.11,9.76,0,14.63,0,.55-.93,1.42-1.55,1.56-5,1.15-10,2.16-15,3.24Z" transform="translate(-8.48 -12.34)"/><path class="a" d="M112.25,27.14h17.09l1.27,18.35c-3.13-.4-6.07-.78-9-1.14-1.19-.14-2.38-.28-3.57-.33-3.84-.16-3.82-.15-4.29-4-.43-3.48-.91-7-1.34-10.44C112.29,28.85,112.3,28.07,112.25,27.14Z" transform="translate(-8.48 -12.34)"/><path class="a" d="M250.39,83.77l-2.55,16.67h-14.1c.81-4.87,1.56-9.65,2.48-14.39.1-.53,1.22-1.15,1.92-1.22C242.09,84.39,246.06,84.12,250.39,83.77Z" transform="translate(-8.48 -12.34)"/><path class="a" d="M291.44,118.57v4.17H283.1v3.77h8.84v4.33c-4.31,0-8.52,0-12.73-.05a1.64,1.64,0,0,1-1.15-1.12c-.07-6.14-.05-12.27-.05-18.58h13.51v3.86h-8.4v3.62Z" transform="translate(-8.48 -12.34)"/><path class="a" d="M419.28,114.93v3.59h8.35v4.16h-8c-1,3.52-.73,4,2.44,3.92l2.87-.05c3.53-.06,3.91.48,2.86,4.18H414.36V111.13h13.38v3.8Z" transform="translate(-8.48 -12.34)"/><path class="a" d="M153.64,130.67V111.12h4.91v15.1h7.63v4.45Z" transform="translate(-8.48 -12.34)"/><path class="a" d="M220.49,126.32h7.63v4.36H215.63V111.11h4.86Z" transform="translate(-8.48 -12.34)"/></svg>